<svg width="800" height="600" viewBox="0 0 800 600" xmlns="http://www.w3.org/2000/svg">
  <g id="garbage-pile" transform="translate(400, 450)">
    <path d="M-120,20 Q-150,0 0,-60 Q150,0 120,20 Z" fill="#4B5563" opacity="0.3"/>
    
    <rect x="-60" y="-40" width="40" height="30" fill="#C9A66B" transform="rotate(-15)" rx="2"/>
    <rect x="20" y="-35" width="35" height="35" fill="#E5E7EB" transform="rotate(10)" rx="1"/>
    
    <rect x="-10" y="-20" width="12" height="25" rx="3" fill="#A8DADC" opacity="0.8"/> <circle cx="-5" cy="-22" r="3" fill="#A8DADC"/>
    <rect x="40" y="-15" width="10" height="18" rx="2" fill="#D97B5A"/> <rect x="-80" y="-10" width="15" height="20" rx="2" fill="#D97B5A" transform="rotate(-40)"/>
    
    <path d="M-40,-10 Q-60,-50 20,-30 Q60,-60 80,-10" stroke="#4B5563" stroke-width="4" fill="none" stroke-linecap="round"/>
    <path d="M-100,10 L100,10 L80,-20 L0,-50 L-80,-20 Z" fill="#4B5563" opacity="0.6"/>
  </g>

  <g id="deer" fill="#1A5F54" transform="translate(180, 460)">
    <path d="M-50,0 Q-60,-10 -40,-30 Q-20,-45 10,-40 L30,-35 Q50,-30 45,0 L35,40 L25,40 L30,5 L-20,5 L-25,40 L-35,40 Z"/>
    <path d="M40,-38 Q45,-80 35,-95" stroke="#1A5F54" stroke-width="8" fill="none"/> <path d="M35,-95 L20,-120 M35,-105 L50,-125 M35,-100 L45,-110" stroke="#1A5F54" stroke-width="2" fill="none"/>
    <circle cx="42" cy="-98" r="6"/> </g>

  <g id="bear" fill="#2D4A3E" transform="translate(620, 460)">
    <path d="M-70,40 L-50,40 L-45,10 L45,10 L50,40 L70,40 Q80,0 60,-40 Q30,-60 -20,-60 Q-80,-40 -70,40"/>
    <path d="M60,-45 Q90,-45 95,-25 Q95,-10 85,-5" fill="#2D4A3E"/> <circle cx="75" cy="-50" r="8"/> </g>

  <g id="rabbit" fill="#4B5563" transform="translate(320, 480)">
    <path d="M-15,15 Q-20,0 -10,-15 Q0,-30 15,-15 Q25,0 20,15 Z"/>
    <circle cx="12" cy="-22" r="8"/>
    <path d="M8,-28 L5,-45 Q5,-50 10,-45 L12,-28" fill="#4B5563"/>
    <path d="M16,-28 L19,-45 Q19,-50 14,-45 L12,-28" fill="#4B5563"/>
  </g>

  <path d="M50,500 L750,500" stroke="#2D4A3E" stroke-width="2" stroke-dasharray="5,5" opacity="0.5"/>
</svg>